<?xml version="1.0" encoding="UTF-8" standalone="no"?>
<!-- Created with Inkscape (http://www.inkscape.org/) -->

<svg
   width="210mm"
   height="297mm"
   viewBox="0 0 210 297"
   version="1.1"
   id="svg5"
   xml:space="preserve"
   inkscape:export-filename="logo.svg"
   inkscape:export-xdpi="96"
   inkscape:export-ydpi="96"
   xmlns:inkscape="http://www.inkscape.org/namespaces/inkscape"
   xmlns:sodipodi="http://sodipodi.sourceforge.net/DTD/sodipodi-0.dtd"
   xmlns="http://www.w3.org/2000/svg"
   xmlns:svg="http://www.w3.org/2000/svg"><sodipodi:namedview
     id="namedview7"
     pagecolor="#ffffff"
     bordercolor="#000000"
     borderopacity="0.25"
     inkscape:showpageshadow="2"
     inkscape:pageopacity="0.0"
     inkscape:pagecheckerboard="0"
     inkscape:deskcolor="#d1d1d1"
     inkscape:document-units="mm"
     showgrid="false" /><defs
     id="defs2" /><g
     inkscape:label="Ebene 1"
     inkscape:groupmode="layer"
     id="layer1"><path
       style="fill:#000000;stroke-width:0.264583"
       d="M 52.782498,151.2 V 138.5 H 98.819999 144.8575 v 12.7 12.7 H 98.819999 52.782498 Z m 91.281252,0 V 139.29375 H 98.687707 53.311665 V 151.2 163.10625 h 45.376042 45.376043 z m -88.900002,0 V 140.88125 H 76.991873 98.819999 V 151.2 161.51875 H 76.991873 55.163748 Z m 27.563099,2.47152 c 0.684038,-0.61905 1.276485,-1.76004 1.276485,-2.45838 0,-0.49504 -0.16143,-0.54231 -1.852083,-0.54231 -1.469909,0 -1.852084,0.0819 -1.852084,0.39687 0,0.29986 0.323379,0.39688 1.322917,0.39688 1.526106,0 1.682446,0.32854 0.674092,1.41657 -1.532821,1.65394 -4.378259,0.3894 -4.378259,-1.94574 0,-2.31251 2.797098,-3.57695 4.389679,-1.98437 0.670033,0.67003 1.431155,0.8811 1.431155,0.39687 0,-0.9447 -2.527594,-2.24737 -3.871442,-1.99527 -2.719512,0.51019 -3.837228,4.19645 -1.869152,6.16453 1.153102,1.1531 3.539027,1.23098 4.728692,0.15435 z m -23.543417,-0.421 0.08136,-1.12448 1.190625,-0.0724 c 1.52767,-0.0929 2.272273,-0.48091 2.643634,-1.37747 0.391346,-0.94479 0.101979,-2.00507 -0.724675,-2.65532 -0.506865,-0.3987 -1.072512,-0.52498 -2.351516,-0.52498 h -1.68411 v 3.43958 c 0,2.82009 0.06874,3.43959 0.381662,3.43959 0.259863,0 0.407626,-0.35886 0.46302,-1.12448 z m -0.05093,-3.50573 v -1.45521 h 1.171726 c 1.376643,0 2.003274,0.49957 2.003274,1.59709 0,0.93045 -0.611997,1.31333 -2.099273,1.31333 H 59.1325 Z m 7.14375,1.19062 c 0,-2.88102 -0.06445,-3.43958 -0.396875,-3.43958 -0.332425,0 -0.396875,0.55856 -0.396875,3.43958 0,2.88102 0.06445,3.43959 0.396875,3.43959 0.332425,0 0.396875,-0.55857 0.396875,-3.43959 z m 7.064759,2.92113 c 1.894134,-1.15492 2.209221,-3.82343 0.637088,-5.39556 -0.747599,-0.7476 -1.003427,-0.8317 -2.806999,-0.92278 l -1.984431,-0.10021 v 3.4685 3.46851 l 1.653646,-0.001 c 1.173078,-8e-4 1.899809,-0.15108 2.500696,-0.51747 z m -3.360592,-2.88746 v -2.6795 h 1.071473 c 1.497433,0 2.528776,0.60322 2.886966,1.68855 0.622739,1.88692 -0.44981,3.33331 -2.626889,3.5425 l -1.33155,0.12794 z m 17.197917,-0.0337 c 0,-2.88102 -0.06445,-3.43958 -0.396875,-3.43958 -0.332425,0 -0.396875,0.55856 -0.396875,3.43958 0,2.88102 0.06445,3.43959 0.396875,3.43959 0.332425,0 0.396875,-0.55857 0.396875,-3.43959 z m 3.760732,0.8599 0.07573,-2.57969 1.805673,2.57969 c 0.993119,1.41883 1.975385,2.57969 2.182813,2.57969 0.307123,0 0.37714,-0.63856 0.37714,-3.43959 0,-2.8432 -0.06715,-3.43958 -0.387295,-3.43958 -0.307978,0 -0.402802,0.52228 -0.463021,2.55026 l -0.07573,2.55027 -1.806649,-2.55027 c -0.993659,-1.40264 -1.975924,-2.55026 -2.182813,-2.55026 -0.305871,0 -0.376163,0.64274 -0.376163,3.43958 0,2.8432 0.06715,3.43959 0.387294,3.43959 0.308343,0 0.40273,-0.52588 0.463021,-2.57969 z m 15.024684,-0.8599 v -3.43958 h 0.92604 0.92604 v 3.43958 3.43959 h -0.92604 -0.92604 z m 3.43958,-0.0271 v -3.46673 l 2.24171,0.0933 c 2.62251,0.10915 3.26361,0.52874 3.49993,2.29066 0.12792,0.95373 0.0483,1.18157 -0.66108,1.89091 -0.6352,0.6352 -1.03565,0.80652 -1.88521,0.80652 -1.05639,0 -1.07868,0.0191 -1.07868,0.92604 0,0.904 -0.0252,0.92605 -1.05833,0.92605 h -1.05834 z m 3.65471,-0.82351 c 0.0668,-0.57908 -0.0458,-0.75065 -0.58028,-0.88481 -0.90003,-0.22589 -1.22234,0.031 -1.22234,0.9741 0,0.73743 0.0622,0.78891 0.85989,0.71199 0.71349,-0.0688 0.874,-0.20522 0.94273,-0.80128 z m 3.7307,3.9511 c -0.39877,-0.30616 -1.03541,-1.30707 -1.03541,-1.62784 0,-0.33603 1.71138,-0.11958 2.14302,0.27104 0.28821,0.26083 0.67321,0.35461 1.01302,0.24676 1.04111,-0.33044 0.60443,-0.84064 -1.33075,-1.55482 -1.75723,-0.6485 -2.27709,-1.90651 -1.30076,-3.1477 1.06084,-1.34865 3.87283,-1.14271 4.63945,0.33977 0.21575,0.41722 0.39227,0.82402 0.39227,0.90401 0,0.33012 -1.81272,0.11478 -2.11666,-0.25145 -0.48314,-0.58215 -1.32292,-0.50464 -1.32292,0.1221 0,0.38734 0.28519,0.59465 1.12448,0.8174 2.27105,0.60275 3.10718,2.50009 1.61796,3.67151 -0.79714,0.62703 -3.11438,0.75382 -3.8237,0.20922 z m 7.02147,0.04 c -0.98655,-0.47928 -1.27893,-1.3186 -1.39357,-4.0003 l -0.11027,-2.57969 h 1.07918 1.07918 l 0.0761,2.4474 c 0.0724,2.32783 0.10587,2.45161 0.68595,2.53385 1.11617,0.15823 1.3745,-0.36138 1.3745,-2.76469 v -2.21656 h 0.92604 0.92604 v 2.66618 c 0,2.59406 -0.0209,2.68711 -0.7734,3.43959 -0.649,0.649 -0.9788,0.77051 -2.05052,0.75549 -0.70241,-0.01 -1.52106,-0.13642 -1.8192,-0.28127 z m 6.23062,-3.14041 v -3.43958 h 0.77685 c 0.64937,0 0.9596,0.26052 1.89042,1.5875 0.61247,0.87312 1.1386,1.5875 1.16919,1.5875 0.0306,0 0.55673,-0.71438 1.16919,-1.5875 0.93083,-1.32698 1.24105,-1.5875 1.89042,-1.5875 h 0.77685 v 3.43958 3.43959 h -0.92604 -0.92604 v -1.78121 -1.78122 l -0.671,0.98747 c -0.46536,0.68483 -0.86787,0.98746 -1.31338,0.98746 -0.44551,0 -0.84802,-0.30263 -1.31338,-0.98746 l -0.67099,-0.98747 v 1.78122 1.78121 h -0.92605 -0.92604 z"
       id="path302" /></g></svg>
